<svg width="18" height="18" viewBox="0 0 18 18" fill="none" xmlns="http://www.w3.org/2000/svg">
<path d="M12.2107 8.83575C12.3163 8.73013 12.3757 8.58687 12.3757 8.4375C12.3757 8.28812 12.3163 8.14487 12.2107 8.03925C12.1051 7.93362 11.9618 7.87429 11.8125 7.87429C11.6631 7.87429 11.5198 7.93362 11.4142 8.03925L8.43748 11.0171L7.14823 9.72675C7.04261 9.62112 6.89935 9.56179 6.74998 9.56179C6.60061 9.56179 6.45735 9.62112 6.35173 9.72675C6.24611 9.83237 6.18677 9.97562 6.18677 10.125C6.18677 10.2744 6.24611 10.4176 6.35173 10.5232L8.03923 12.2107C8.09148 12.2631 8.15355 12.3047 8.22189 12.333C8.29023 12.3614 8.36349 12.376 8.43748 12.376C8.51147 12.376 8.58473 12.3614 8.65307 12.333C8.7214 12.3047 8.78348 12.2631 8.83573 12.2107L12.2107 8.83575Z" fill="black"/>
<path d="M15.75 15.75V5.0625L10.6875 0H4.5C3.90326 0 3.33097 0.237053 2.90901 0.65901C2.48705 1.08097 2.25 1.65326 2.25 2.25V15.75C2.25 16.3467 2.48705 16.919 2.90901 17.341C3.33097 17.7629 3.90326 18 4.5 18H13.5C14.0967 18 14.669 17.7629 15.091 17.341C15.5129 16.919 15.75 16.3467 15.75 15.75ZM10.6875 3.375C10.6875 3.82255 10.8653 4.25178 11.1818 4.56824C11.4982 4.88471 11.9274 5.0625 12.375 5.0625H14.625V15.75C14.625 16.0484 14.5065 16.3345 14.2955 16.5455C14.0845 16.7565 13.7984 16.875 13.5 16.875H4.5C4.20163 16.875 3.91548 16.7565 3.7045 16.5455C3.49353 16.3345 3.375 16.0484 3.375 15.75V2.25C3.375 1.95163 3.49353 1.66548 3.7045 1.4545C3.91548 1.24353 4.20163 1.125 4.5 1.125H10.6875V3.375Z" fill="black"/>
</svg>
