<svg width="18" height="18" viewBox="0 0 18 18" fill="none" xmlns="http://www.w3.org/2000/svg">
<path d="M8.02126 6.70275V7.7355H7.26526V8.99775H8.02126V12.75H9.57526V8.99775H10.6178C10.6178 8.99775 10.716 8.3925 10.7633 7.73025H9.58126V6.86775C9.58126 6.738 9.75076 6.56475 9.91876 6.56475H10.7648V5.25H9.61351C7.98301 5.25 8.02126 6.51375 8.02126 6.70275Z" fill="black"/>
<path d="M4.5 3C4.10218 3 3.72064 3.15804 3.43934 3.43934C3.15804 3.72064 3 4.10218 3 4.5V13.5C3 13.8978 3.15804 14.2794 3.43934 14.5607C3.72064 14.842 4.10218 15 4.5 15H13.5C13.8978 15 14.2794 14.842 14.5607 14.5607C14.842 14.2794 15 13.8978 15 13.5V4.5C15 4.10218 14.842 3.72064 14.5607 3.43934C14.2794 3.15804 13.8978 3 13.5 3H4.5ZM4.5 1.5H13.5C14.2956 1.5 15.0587 1.81607 15.6213 2.37868C16.1839 2.94129 16.5 3.70435 16.5 4.5V13.5C16.5 14.2956 16.1839 15.0587 15.6213 15.6213C15.0587 16.1839 14.2956 16.5 13.5 16.5H4.5C3.70435 16.5 2.94129 16.1839 2.37868 15.6213C1.81607 15.0587 1.5 14.2956 1.5 13.5V4.5C1.5 3.70435 1.81607 2.94129 2.37868 2.37868C2.94129 1.81607 3.70435 1.5 4.5 1.5Z" fill="black"/>
</svg>
