<svg width="18" height="18" viewBox="0 0 18 18" fill="none" xmlns="http://www.w3.org/2000/svg">
<path d="M7.63501 12.756C7.72501 12.756 7.79326 12.753 7.83826 12.747C7.89105 12.7363 7.93864 12.708 7.97326 12.6667C8.01826 12.6195 8.04076 12.5512 8.04076 12.4612L8.03776 12.0435C8.03551 11.7772 8.03476 11.5657 8.03476 11.4105L7.89376 11.4352C7.78092 11.453 7.66666 11.46 7.55251 11.4562C7.40908 11.4537 7.2661 11.4394 7.12501 11.4135C6.97528 11.3856 6.83437 11.3223 6.71401 11.229C6.58783 11.1335 6.49366 11.002 6.44401 10.8517L6.38251 10.71C6.33078 10.5984 6.26581 10.4934 6.18901 10.3972C6.12005 10.2987 6.02816 10.2184 5.92126 10.1632L5.87851 10.1332C5.84907 10.1116 5.82237 10.0864 5.79901 10.0582C5.77633 10.0327 5.75762 10.0039 5.74351 9.97275C5.73151 9.94425 5.74126 9.92025 5.77351 9.90225C5.83011 9.8795 5.89117 9.87001 5.95201 9.8745L6.07501 9.89325C6.15751 9.909 6.25876 9.9585 6.37951 10.0402C6.49951 10.1227 6.59926 10.2285 6.67726 10.3597C6.77176 10.5277 6.88501 10.656 7.01851 10.7437C7.13634 10.8268 7.27634 10.8728 7.42051 10.8757C7.55551 10.8757 7.67251 10.866 7.77076 10.8457C7.86639 10.8259 7.9593 10.7947 8.04751 10.7527C8.08426 10.479 8.18401 10.2675 8.34751 10.1205C8.13525 10.0995 7.92489 10.0624 7.71826 10.0095C7.5165 9.95389 7.3225 9.87326 7.14076 9.7695C6.95043 9.66624 6.78224 9.52659 6.64576 9.3585C6.51526 9.19425 6.40801 8.97975 6.32326 8.7135C6.23489 8.4144 6.19266 8.10358 6.19801 7.79175C6.19801 7.29675 6.36001 6.8745 6.68326 6.5265C6.53176 6.15375 6.54601 5.736 6.72601 5.27325C6.84526 5.23575 7.02151 5.2635 7.25476 5.35575C7.48801 5.448 7.65976 5.52675 7.76776 5.59275C7.87651 5.658 7.96276 5.71275 8.02876 5.75775C8.41289 5.65106 8.80984 5.59757 9.20851 5.59875C9.61351 5.59875 10.0073 5.65125 10.3883 5.7585L10.6208 5.61075C10.7813 5.51325 10.9695 5.4225 11.1863 5.34075C11.4038 5.25825 11.5695 5.23575 11.6843 5.27325C11.8688 5.736 11.8853 6.15375 11.733 6.52575C12.057 6.8745 12.219 7.296 12.219 7.79175C12.219 8.13975 12.177 8.448 12.093 8.7165C12.009 8.985 11.9003 9.1995 11.7675 9.3615C11.6288 9.52794 11.4598 9.66663 11.2695 9.77025C11.0878 9.87404 10.8938 9.95467 10.692 10.0102C10.4851 10.0629 10.2745 10.0998 10.062 10.1205C10.275 10.3042 10.3815 10.5952 10.3815 10.9927V12.4605C10.3815 12.5302 10.392 12.5865 10.4123 12.63C10.4218 12.6507 10.4354 12.6693 10.4523 12.6846C10.4692 12.7 10.489 12.7117 10.5105 12.7192C10.5555 12.735 10.596 12.7455 10.6305 12.7492C10.6658 12.7537 10.7153 12.756 10.7805 12.756H7.63576H7.63501Z" fill="black"/>
<path d="M4.5 3C4.10218 3 3.72064 3.15804 3.43934 3.43934C3.15804 3.72064 3 4.10218 3 4.5V13.5C3 13.8978 3.15804 14.2794 3.43934 14.5607C3.72064 14.842 4.10218 15 4.5 15H13.5C13.8978 15 14.2794 14.842 14.5607 14.5607C14.842 14.2794 15 13.8978 15 13.5V4.5C15 4.10218 14.842 3.72064 14.5607 3.43934C14.2794 3.15804 13.8978 3 13.5 3H4.5ZM4.5 1.5H13.5C14.2956 1.5 15.0587 1.81607 15.6213 2.37868C16.1839 2.94129 16.5 3.70435 16.5 4.5V13.5C16.5 14.2956 16.1839 15.0587 15.6213 15.6213C15.0587 16.1839 14.2956 16.5 13.5 16.5H4.5C3.70435 16.5 2.94129 16.1839 2.37868 15.6213C1.81607 15.0587 1.5 14.2956 1.5 13.5V4.5C1.5 3.70435 1.81607 2.94129 2.37868 2.37868C2.94129 1.81607 3.70435 1.5 4.5 1.5Z" fill="black"/>
</svg>
