<svg width="18" height="18" viewBox="0 0 18 18" fill="none" xmlns="http://www.w3.org/2000/svg">
<path d="M8.09821 2.14919C8.346 1.92656 8.66735 1.80341 9.00046 1.80341C9.33357 1.80341 9.65492 1.92656 9.90271 2.14919L14.8527 6.59699C14.9935 6.72356 15.106 6.8783 15.1831 7.05118C15.2601 7.22406 15.3 7.41121 15.3 7.60049V13.95C15.3 14.308 15.1578 14.6514 14.9046 14.9046C14.6514 15.1578 14.3081 15.3 13.95 15.3H11.7C11.342 15.3 10.9986 15.1578 10.7454 14.9046C10.4922 14.6514 10.35 14.308 10.35 13.95V10.8C10.35 10.6806 10.3026 10.5662 10.2182 10.4818C10.1338 10.3974 10.0194 10.35 9.90001 10.35H8.10001C7.98067 10.35 7.86621 10.3974 7.78181 10.4818C7.69742 10.5662 7.65001 10.6806 7.65001 10.8V13.95C7.65001 14.308 7.50778 14.6514 7.25461 14.9046C7.00143 15.1578 6.65805 15.3 6.30001 15.3H4.05001C3.69197 15.3 3.34859 15.1578 3.09542 14.9046C2.84224 14.6514 2.70001 14.308 2.70001 13.95V7.60049C2.70001 7.21799 2.86201 6.85349 3.14821 6.59699L8.09821 2.14919ZM9.30061 2.81879C9.21803 2.74467 9.11098 2.70366 9.00001 2.70366C8.88904 2.70366 8.78199 2.74467 8.69941 2.81879L3.74941 7.26659C3.70252 7.30869 3.66499 7.36016 3.63925 7.41768C3.61352 7.4752 3.60015 7.53748 3.60001 7.60049V13.95C3.60001 14.0693 3.64742 14.1838 3.73181 14.2682C3.81621 14.3526 3.93066 14.4 4.05001 14.4H6.30001C6.41936 14.4 6.53382 14.3526 6.61821 14.2682C6.7026 14.1838 6.75001 14.0693 6.75001 13.95V10.8C6.75001 10.442 6.89224 10.0986 7.14542 9.8454C7.39859 9.59222 7.74197 9.44999 8.10001 9.44999H9.90001C10.2581 9.44999 10.6014 9.59222 10.8546 9.8454C11.1078 10.0986 11.25 10.442 11.25 10.8V13.95C11.25 14.0693 11.2974 14.1838 11.3818 14.2682C11.4662 14.3526 11.5807 14.4 11.7 14.4H13.95C14.0694 14.4 14.1838 14.3526 14.2682 14.2682C14.3526 14.1838 14.4 14.0693 14.4 13.95V7.60049C14.3999 7.53748 14.3865 7.4752 14.3608 7.41768C14.335 7.36016 14.2975 7.30869 14.2506 7.26659L9.30061 2.81879Z" fill="black"/>
</svg>
