<svg width="18" height="18" viewBox="0 0 18 18" fill="none" xmlns="http://www.w3.org/2000/svg">
<path d="M7.05225 12.0195L7.53225 11.937C7.62525 11.9205 7.73625 11.8965 7.8645 11.8635C9.45 11.466 10.5 10.281 10.5 9C10.5 7.39875 8.868 6 6.75 6C4.632 6 3 7.39875 3 9C3 9.9135 3.5265 10.7835 4.44825 11.3625L4.47525 11.3775L5.25 11.805V13.8773L7.05225 12.0195ZM7.78875 13.4145L5.0385 16.2495C4.93456 16.3567 4.80099 16.4305 4.65488 16.4613C4.50878 16.4921 4.35679 16.4787 4.21839 16.4226C4.07999 16.3665 3.96148 16.2704 3.87803 16.1466C3.79459 16.0228 3.75001 15.8768 3.75 15.7275V12.69C3.71649 12.6719 3.68348 12.6529 3.651 12.633C2.34675 11.814 1.5 10.4918 1.5 9C1.5 6.5145 3.8505 4.5 6.75 4.5C9.6495 4.5 12 6.5145 12 9C12 11.0445 10.4093 12.771 8.2305 13.3185C8.08448 13.3559 7.93713 13.3879 7.78875 13.4145ZM6.702 3.75C7.6095 2.40525 9.3075 1.5 11.25 1.5C14.1495 1.5 16.5 3.5145 16.5 6C16.5 7.49175 15.6525 8.814 14.349 9.633C14.3165 9.65289 14.2835 9.67189 14.25 9.69V12.7275C14.25 12.8768 14.2054 13.0228 14.122 13.1466C14.0385 13.2704 13.92 13.3665 13.7816 13.4226C13.6432 13.4787 13.4912 13.4921 13.3451 13.4613C13.199 13.4305 13.0654 13.3567 12.9615 13.2495L11.6603 11.9085L12.4425 10.56L12.75 10.8773V8.805L13.5248 8.3775L13.5518 8.3625C14.4743 7.7835 15 6.9135 15 6C15 4.39875 13.368 3 11.25 3C10.29 3 9.4305 3.28725 8.77725 3.75H6.702Z" fill="black"/>
</svg>
