<svg width="18" height="18" viewBox="0 0 18 18" fill="none" xmlns="http://www.w3.org/2000/svg">
<path d="M12.4686 6.4314C12.5105 6.4732 12.5437 6.52286 12.5664 6.57753C12.5891 6.6322 12.6008 6.69081 12.6008 6.75C12.6008 6.80919 12.5891 6.8678 12.5664 6.92247C12.5437 6.97714 12.5105 7.0268 12.4686 7.0686L10.8936 8.6436C10.8116 8.72549 10.7012 8.77259 10.5853 8.77511C10.4695 8.77762 10.3571 8.73535 10.2717 8.6571L9.59668 8.0406C9.51308 7.95905 9.46445 7.8482 9.46108 7.73146C9.45771 7.61472 9.49986 7.50125 9.57862 7.41501C9.65737 7.32878 9.76657 7.27654 9.88313 7.26933C9.9997 7.26213 10.1145 7.30052 10.2033 7.3764L10.5606 7.7022L11.8314 6.4314C11.8732 6.3895 11.9228 6.35625 11.9775 6.33356C12.0322 6.31088 12.0908 6.2992 12.15 6.2992C12.2092 6.2992 12.2678 6.31088 12.3224 6.33356C12.3771 6.35625 12.4268 6.3895 12.4686 6.4314ZM12.4686 11.5686C12.5531 11.4842 12.6006 11.3697 12.6007 11.2503C12.6008 11.1309 12.5534 11.0163 12.469 10.9319C12.3846 10.8474 12.2702 10.7998 12.1507 10.7998C12.0313 10.7997 11.9168 10.847 11.8323 10.9314L10.5606 12.2022L10.2033 11.8764C10.1145 11.8005 9.9997 11.7621 9.88313 11.7693C9.76657 11.7765 9.65737 11.8288 9.57862 11.915C9.49986 12.0012 9.45771 12.1147 9.46108 12.2315C9.46445 12.3482 9.51308 12.4591 9.59668 12.5406L10.2717 13.1571C10.3571 13.2351 10.4692 13.2772 10.5849 13.2747C10.7005 13.2722 10.8107 13.2252 10.8927 13.1436L12.4677 11.5686H12.4686ZM5.84998 7.2C5.73063 7.2 5.61617 7.24741 5.53178 7.3318C5.44739 7.4162 5.39998 7.53065 5.39998 7.65C5.39998 7.76935 5.44739 7.88381 5.53178 7.9682C5.61617 8.05259 5.73063 8.1 5.84998 8.1H8.09998C8.21932 8.1 8.33378 8.05259 8.41817 7.9682C8.50257 7.88381 8.54998 7.76935 8.54998 7.65C8.54998 7.53065 8.50257 7.4162 8.41817 7.3318C8.33378 7.24741 8.21932 7.2 8.09998 7.2H5.84998ZM5.39998 12.15C5.39998 12.0307 5.44739 11.9162 5.53178 11.8318C5.61617 11.7474 5.73063 11.7 5.84998 11.7H8.09998C8.21932 11.7 8.33378 11.7474 8.41817 11.8318C8.50257 11.9162 8.54998 12.0307 8.54998 12.15C8.54998 12.2693 8.50257 12.3838 8.41817 12.4682C8.33378 12.5526 8.21932 12.6 8.09998 12.6H5.84998C5.73063 12.6 5.61617 12.5526 5.53178 12.4682C5.44739 12.3838 5.39998 12.2693 5.39998 12.15ZM6.37648 2.7C6.46957 2.43668 6.64205 2.20872 6.87013 2.04753C7.09822 1.88634 7.37068 1.79986 7.64998 1.8H10.35C10.6293 1.79986 10.9017 1.88634 11.1298 2.04753C11.3579 2.20872 11.5304 2.43668 11.6235 2.7H13.05C13.408 2.7 13.7514 2.84223 14.0046 3.09541C14.2577 3.34858 14.4 3.69196 14.4 4.05V14.85C14.4 15.208 14.2577 15.5514 14.0046 15.8046C13.7514 16.0578 13.408 16.2 13.05 16.2H4.94998C4.59193 16.2 4.24856 16.0578 3.99538 15.8046C3.74221 15.5514 3.59998 15.208 3.59998 14.85V4.05C3.59998 3.69196 3.74221 3.34858 3.99538 3.09541C4.24856 2.84223 4.59193 2.7 4.94998 2.7H6.37648ZM7.64998 2.7C7.53063 2.7 7.41617 2.74741 7.33178 2.83181C7.24739 2.9162 7.19998 3.03066 7.19998 3.15C7.19998 3.26935 7.24739 3.38381 7.33178 3.4682C7.41617 3.55259 7.53063 3.6 7.64998 3.6H10.35C10.4693 3.6 10.5838 3.55259 10.6682 3.4682C10.7526 3.38381 10.8 3.26935 10.8 3.15C10.8 3.03066 10.7526 2.9162 10.6682 2.83181C10.5838 2.74741 10.4693 2.7 10.35 2.7H7.64998ZM6.37648 3.6H4.94998C4.83063 3.6 4.71617 3.64741 4.63178 3.73181C4.54739 3.8162 4.49998 3.93066 4.49998 4.05V14.85C4.49998 14.9693 4.54739 15.0838 4.63178 15.1682C4.71617 15.2526 4.83063 15.3 4.94998 15.3H13.05C13.1693 15.3 13.2838 15.2526 13.3682 15.1682C13.4526 15.0838 13.5 14.9693 13.5 14.85V4.05C13.5 3.93066 13.4526 3.8162 13.3682 3.73181C13.2838 3.64741 13.1693 3.6 13.05 3.6H11.6235C11.5304 3.86332 11.3579 4.09129 11.1298 4.25248C10.9017 4.41367 10.6293 4.50015 10.35 4.5H7.64998C7.37068 4.50015 7.09822 4.41367 6.87013 4.25248C6.64205 4.09129 6.46957 3.86332 6.37648 3.6Z" fill="black"/>
</svg>
