<svg xmlns="http://www.w3.org/2000/svg" xmlns:xlink="http://www.w3.org/1999/xlink" aria-hidden="true" focusable="false" width="1em" height="1em" style="-ms-transform: rotate(360deg); -webkit-transform: rotate(360deg); transform: rotate(360deg);" preserveAspectRatio="xMidYMid meet" viewBox="0 0 24 24"><path d="M12.71 6.29a1 1 0 0 0-.33-.21a1 1 0 0 0-.76 0a1 1 0 0 0-.33.21l-4 4a1 1 0 1 0 1.42 1.42L11 9.41V21a1 1 0 0 0 2 0V9.41l2.29 2.3a1 1 0 0 0 1.42 0a1 1 0 0 0 0-1.42zM19 2H5a1 1 0 0 0 0 2h14a1 1 0 0 0 0-2z" fill="#626262"/></svg>