<svg width="18" height="18" viewBox="0 0 18 18" fill="none" xmlns="http://www.w3.org/2000/svg">
<path d="M6.75 1.125C4.58156 1.125 2.8125 2.89406 2.8125 5.0625C2.8125 6.41813 3.50437 7.62187 4.55288 8.33231C2.54644 9.19294 1.125 11.1842 1.125 13.5H2.25C2.25 11.0081 4.25813 9 6.75 9C7.52344 9 8.244 9.2025 8.87681 9.54506C8.22908 10.3461 7.87549 11.3449 7.875 12.375C7.875 14.8534 9.89662 16.875 12.375 16.875C14.8534 16.875 16.875 14.8534 16.875 12.375C16.875 9.89662 14.8534 7.875 12.375 7.875C11.427 7.87582 10.5037 8.17734 9.738 8.73619C9.4853 8.58101 9.22087 8.44579 8.94712 8.33175C9.48226 7.9705 9.92071 7.48361 10.2241 6.91368C10.5275 6.34375 10.6866 5.70815 10.6875 5.0625C10.6875 2.89406 8.91844 1.125 6.75 1.125ZM6.75 2.25C8.30981 2.25 9.5625 3.50269 9.5625 5.0625C9.5625 6.62231 8.30981 7.875 6.75 7.875C5.19019 7.875 3.9375 6.62231 3.9375 5.0625C3.9375 3.50269 5.19019 2.25 6.75 2.25ZM12.375 9C14.2448 9 15.75 10.5052 15.75 12.375C15.75 14.2448 14.2448 15.75 12.375 15.75C10.5052 15.75 9 14.2448 9 12.375C9 10.5052 10.5052 9 12.375 9ZM14.2206 10.8456L12.375 12.6917L11.0919 11.4081L10.2831 12.2169L11.9706 13.9044L12.375 14.2909L12.7794 13.9044L15.0294 11.6544L14.2206 10.8456Z" fill="black"/>
</svg>
