<svg width="50" height="50" viewBox="0 0 50 50" fill="none" xmlns="http://www.w3.org/2000/svg">
<path d="M45.3282 7.85938L36.3188 3.52188C35.81 3.27657 35.2375 3.19561 34.6806 3.29024C34.1238 3.38487 33.6102 3.6504 33.211 4.05001L3.71878 30.9375C3.36095 31.2622 3.14676 31.7157 3.12332 32.1983C3.09988 32.681 3.26911 33.1531 3.59378 33.511C3.63284 33.5531 3.6719 33.5938 3.71409 33.6313L6.1219 35.8188C6.43653 36.1051 6.84152 36.2722 7.26654 36.2911C7.69155 36.3099 8.10974 36.1793 8.44847 35.9219L43.9719 8.98438C44.2402 8.78078 44.56 8.65611 44.8954 8.62441C45.2307 8.59271 45.5682 8.65524 45.8699 8.80497C46.1717 8.95469 46.4256 9.18566 46.6032 9.47187C46.7807 9.75809 46.8749 10.0882 46.875 10.425V10.3203C46.875 9.8061 46.7298 9.30234 46.4562 8.86698C46.1825 8.43163 45.7915 8.08237 45.3282 7.85938Z" fill="#0065A9"/>
<path d="M45.3282 42.1407L36.3188 46.4797C35.8098 46.7244 35.2375 46.8049 34.6808 46.7103C34.1241 46.6157 33.6105 46.3506 33.211 45.9516L3.71878 19.0625C3.36095 18.7379 3.14676 18.2843 3.12332 17.8017C3.09988 17.3191 3.26911 16.8469 3.59378 16.4891C3.63284 16.4469 3.6719 16.4063 3.71409 16.3688L6.1219 14.1813C6.43685 13.8937 6.84277 13.7259 7.26883 13.707C7.69489 13.6882 8.11404 13.8195 8.45315 14.0782L43.9719 41.0157C44.2402 41.2193 44.56 41.3439 44.8954 41.3756C45.2307 41.4073 45.5682 41.3448 45.8699 41.1951C46.1717 41.0454 46.4256 40.8144 46.6032 40.5282C46.7807 40.242 46.8749 39.9119 46.875 39.575V39.6875C46.8733 40.2004 46.7274 40.7024 46.4538 41.1362C46.1803 41.57 45.7902 41.9181 45.3282 42.1407Z" fill="#007ACC"/>
<path d="M36.3187 46.4797C35.8098 46.7243 35.2375 46.8049 34.6808 46.7103C34.1241 46.6157 33.6105 46.3506 33.2109 45.9515C33.4353 46.173 33.72 46.3233 34.0295 46.3836C34.3389 46.444 34.6593 46.4116 34.9504 46.2906C35.2415 46.1697 35.4905 45.9655 35.6661 45.7037C35.8417 45.4418 35.9361 45.134 35.9375 44.8187V5.18123C35.9377 4.8645 35.844 4.55481 35.6681 4.2914C35.4922 4.02799 35.2421 3.82271 34.9494 3.70157C34.6568 3.58042 34.3348 3.54886 34.0242 3.61089C33.7136 3.67291 33.4283 3.82573 33.2047 4.04998C33.6039 3.65052 34.1174 3.38497 34.6742 3.29008C35.2309 3.19519 35.8034 3.27564 36.3125 3.5203L45.3203 7.85155C45.7851 8.07342 46.1777 8.4222 46.4528 8.85764C46.7279 9.29308 46.8742 9.79743 46.875 10.3125V39.6875C46.8751 40.2021 46.7298 40.7063 46.4559 41.142C46.1819 41.5777 45.7904 41.9271 45.3265 42.15L36.3187 46.4797Z" fill="#1F9CF0"/>
</svg>
